<?xml version="1.0" encoding="utf-8"?>
<!-- Generator: Adobe Illustrator 27.3.1, SVG Export Plug-In . SVG Version: 6.00 Build 0)  -->
<svg version="1.1" id="Layer_1" xmlns="http://www.w3.org/2000/svg" xmlns:xlink="http://www.w3.org/1999/xlink" x="0px" y="0px"
	 viewBox="0 0 943.81 943.81" style="enable-background:new 0 0 943.81 943.81;" xml:space="preserve">
<style type="text/css">
	.st0{fill:#FFFFFF;}
	.st1{fill:#005355;}
</style>
<path class="st0" d="M774.86,943.81H168.94C75.64,943.81,0,868.17,0,774.86V168.94C0,75.64,75.64,0,168.94,0h605.92
	c93.3,0,168.94,75.64,168.94,168.94v605.92C943.81,868.17,868.17,943.81,774.86,943.81z"/>
<g>
	<path class="st1" d="M620.67,814.09c-1.95-7.96-3.77-15.96-5.88-23.88c-9-33.74-22.08-65.66-42.19-94.44
		c-15.97-22.86-35.45-42.24-58.11-58.44c-0.73-0.52-1.57-0.88-3.41-1.89c15.56,63.27,30.88,125.6,46.21,187.93
		c-0.29,0.36-0.58,0.73-0.87,1.09c-2.67-1.07-5.53-1.83-7.99-3.27c-28.54-16.7-56.92-33.67-85.54-50.23
		c-54.71-31.67-110.16-62-166.55-90.6c-16.2-8.22-32.44-16.36-48.76-24.35c-5-2.45-10.38-4.13-15.43-6.49
		c-4.04-1.89-7.84-4.28-12.66-6.95c5.39-3.26,9.8-5.78,14.05-8.53c11.54-7.45,23.13-14.82,34.46-22.58
		c6.73-4.61,7.59-8.47,4.33-15.88c-16.39-37.28-32.85-74.53-49.29-111.79c-2.86-6.49-5.72-12.98-8.59-19.47
		c-1.95-4.41-0.72-6.29,4.07-5.61c11.26,1.6,22.5,3.37,33.73,5.16c19.14,3.05,38.27,6.17,57.4,9.24c0.33,0.05,0.68-0.07,1.62-0.19
		c-0.22-2.7-0.35-5.41-0.69-8.1c-2-16.12-4.06-32.24-6.07-48.36c-0.36-2.88-0.76-5.77-0.83-8.66c-0.19-8.03-2.45-11.45-10-14.02
		c-23.59-8.04-46.82-17-69.16-28.05c-20.02-9.9-40.32-19.35-58.84-32.02c-12.84-8.79-23.77-19.46-31.73-32.98
		c-4.66-7.92-3.32-17.1,3.44-23.22c6.3-5.69,14.03-8.31,22.11-9.64c12.12-2.01,24.3-3.99,36.54-4.92c12.4-0.94,24.96-1.5,37.33-0.61
		c32.62,2.33,65.37,2.97,97.64,9.9c41.07,8.82,82.55,15.74,123.7,24.24c61.21,12.64,122.28,25.94,181.61,46.04
		c36.17,12.25,71.3,27.15,106.26,42.45c16.09,7.04,32.19,14.09,48.08,21.58c12.19,5.75,23.18,13.39,32.4,23.38
		c0.4,0.43,0.81,0.84,1.18,1.29c3.91,4.69,3.51,6.88-1.85,9.76c-7.72,4.14-16.03,5.93-24.7,6.74c-16.1,1.5-32.18,3.32-48.37,2.59
		c-14.97-0.67-29.94-1.61-44.89-2.59c-11.71-0.77-23.4-1.83-35.1-2.67c-3.97-0.28-6.38,2.4-5.84,6.42
		c1.56,11.62,3.24,23.23,4.8,34.85c0.94,7.02,1.88,14.04,2.57,21.08c0.65,6.55,3.44,9.28,10.15,9.29c10.72,0.02,21.44,0,32.16,0.01
		c5.77,0.01,6.9,1.57,4.69,7.01c-7.79,19.18-15.96,38.22-23.45,57.52c-19.32,49.76-37.97,99.78-52.39,151.23
		c-5.26,18.79-9.96,37.73-14.68,56.66c-1.48,5.95-2.07,12.12-3.34,18.13c-0.51,2.41-1.74,4.66-2.64,6.98
		C621.12,814.18,620.9,814.14,620.67,814.09z M371.65,411.51c-0.51,3.66-0.96,6.83-1.39,10c-2.07,15.29-3.94,30.61-6.25,45.86
		c-1.48,9.77,0.81,13.87,10.62,15.93c15.9,3.34,31.94,6.05,47.78,9.66c17.66,4.02,35.15,8.74,52.72,13.17
		c5.22,1.32,8.51,4.58,9.71,9.87c4.94,21.85,9.92,43.7,14.8,65.57c1.59,7.12,5.2,12.39,12.37,14.71
		c17.68,5.71,35.19,12.23,53.9,13.69c12.76,0.99,22.97-2.81,26.15-16.84c1.17-5.16,1.57-10.6,1.53-15.9
		c-0.07-9.53-0.64-19.05-1.19-28.57c-0.52-9.05-1.35-18.07-1.89-27.12c-0.43-7.08-0.78-14.17-0.88-21.26
		c-0.06-4.27,1.61-6.17,5.84-6.98c2.12-0.41,4.37-0.13,6.56-0.12c1.97,0.01,3.96,0.28,5.91,0.09c4.97-0.48,9.91-1.21,14.87-1.74
		c6.39-0.69,7.38-2.12,6.55-8.57c-1.45-11.28-2.85-22.57-3.94-33.89c-0.39-4.01-2.14-6.42-5.71-7.93
		c-3.75-1.59-7.44-3.32-11.12-5.06c-45.64-21.61-91.28-43.23-136.93-64.84c-1.16-0.55-2.43-0.86-4.02-1.41
		c-0.38,3.57-0.73,6.55-1.03,9.54c-1.56,15.71-3.26,31.4-4.62,47.13c-0.72,8.32-2.73,10-10.89,7.86c-0.45-0.12-0.91-0.2-1.35-0.33
		c-20.97-6.11-41.94-12.24-62.92-18.34C381.96,414.3,377.05,413,371.65,411.51z"/>
	<path class="st1" d="M652.44,221.13c1.23,17.85,2.49,35.69,3.67,53.54c0.18,2.78,0.16,5.6,0.03,8.38c-0.2,4.22-1.49,5.06-5.62,3.92
		c-16.57-4.55-32.99-9.85-49.76-13.48c-24.48-5.31-49.14-9.95-73.88-13.88c-17.51-2.78-35.29-3.88-52.95-5.77
		c-24.8-2.65-49.69-2.81-74.59-2.79c-11.85,0.01-23.71,0-35.56,0c-6.84,0-13.71-0.32-20.53,0.09c-6.82,0.4-13.59,1.52-20.39,2.34
		c-0.69,0.08-1.36,0.31-2.05,0.37c-6.86,0.59-9.21-1.27-8.67-8.17c0.57-7.27,2.03-14.46,3.01-21.7c1.79-13.11,3.54-26.22,5.25-39.34
		c1.01-7.71,1.81-15.45,2.9-23.15c0.59-4.17,3.48-6.91,8.04-7.6c14.57-2.21,29.15-4.35,43.74-6.39c13.79-1.92,27.58-3.93,41.42-5.44
		c12.35-1.35,24.75-2.36,37.16-2.99c14.86-0.75,29.77-1.58,44.63-1.21c17.64,0.44,35.28,1.73,52.85,3.34
		c29.58,2.72,58.47,9.09,86.84,17.86c11.87,3.67,12.73,4.81,13.86,18.08c1.24,14.58,1.43,29.26,2.08,43.89
		C653.44,221.07,652.94,221.1,652.44,221.13z"/>
</g>
</svg>
