<?xml version="1.0" encoding="utf-8"?>
<!-- Generator: Adobe Illustrator 27.3.1, SVG Export Plug-In . SVG Version: 6.00 Build 0)  -->
<svg version="1.1" id="Layer_1" xmlns="http://www.w3.org/2000/svg" xmlns:xlink="http://www.w3.org/1999/xlink" x="0px" y="0px"
	 viewBox="0 0 4436.1 943.81" style="enable-background:new 0 0 4436.1 943.81;" xml:space="preserve">
<style type="text/css">
	.st0{fill:#005355;}
	.st1{fill:#FFFFFF;}
</style>
<g>
	<path d="M1094.69,631.17c-44.53,0-80.02-14.79-106.46-44.38c-26.44-29.59-39.66-68.04-39.66-115.36
		c0-50.24,13.58-90.49,40.76-120.74c27.17-30.25,64.27-45.37,111.29-45.37c42.48,0,76.87,14.54,103.16,43.62
		c26.29,29.08,39.44,67.2,39.44,114.37c0,52.15-13.48,93.16-40.43,123.05C1175.84,616.23,1139.81,631.17,1094.69,631.17z
		 M1096.89,325.09c-36.62,0-66.76,13.26-90.42,39.77c-23.66,26.51-35.49,61.23-35.49,104.15c0,43.36,11.21,77.89,33.62,103.6
		c22.41,25.71,52.29,38.56,89.65,38.56c38.96,0,69.8-12.71,92.5-38.12c22.7-25.41,34.06-60.83,34.06-106.24
		c0-44.53-11.1-79.28-33.29-104.26C1165.34,337.58,1135.12,325.09,1096.89,325.09z"/>
	<path d="M1340.61,499.33v126.34h-21.75V310.59h76.03c32.37,0,57.13,7.51,74.27,22.52c17.14,15.02,25.71,36.95,25.71,65.81
		c0,29.3-9.56,53.36-28.67,72.18c-19.12,18.83-45.89,28.24-80.31,28.24H1340.61z M1340.61,330.58v148.75h44.82
		c28.42,0,50.02-6.77,64.82-20.32c14.79-13.55,22.19-32.7,22.19-57.46c0-47.31-27.17-70.97-81.52-70.97H1340.61z"/>
	<path d="M1574.88,625.67V310.59h147.22v20h-125.46v126.34h116.46v19.78h-116.46v129.2h132.71v19.78H1574.88z"/>
	<path d="M2033.94,625.67l-187.65-254.66c-3.81-5.13-7.18-10.25-10.11-15.38l-2.86-4.39h-0.88c0.29,3.81,0.44,8.42,0.44,13.84v260.6
		h-21.75V310.59h16.7l186.33,252.47c4.1,5.57,8.57,12.3,13.4,20.21h1.1c-0.73-10.25-1.1-19.04-1.1-26.37V310.59h21.75v315.09
		H2033.94z"/>
	<path class="st0" d="M2319.19,368.37H2208v77.34h102.17v57.57H2208v122.39h-70.97V310.59h182.15V368.37z"/>
	<path class="st0" d="M2549.28,625.67h-65.7v-32.3h-0.88c-15.09,25.2-37.43,37.79-67.02,37.79c-21.83,0-39-6.19-51.53-18.57
		c-12.52-12.38-18.79-28.89-18.79-49.55c0-43.65,25.85-68.85,77.56-75.59l61.08-8.13c0-24.61-13.33-36.91-39.99-36.91
		c-26.81,0-52.29,7.99-76.46,23.95v-52.29c9.67-4.98,22.89-9.37,39.66-13.18c16.77-3.81,32.04-5.71,45.81-5.71
		c64.16,0,96.24,32.01,96.24,96.02V625.67z M2484.02,534.27v-15.16l-40.87,5.27c-22.56,2.93-33.84,13.11-33.84,30.54
		c0,7.91,2.75,14.39,8.24,19.45c5.49,5.05,12.93,7.58,22.3,7.58c13.04,0,23.66-4.5,31.86-13.51
		C2479.92,559.43,2484.02,548.04,2484.02,534.27z"/>
	<path class="st0" d="M2785.97,617.54c-15.68,9.08-38.31,13.62-67.9,13.62c-34.57,0-62.55-10.47-83.94-31.42
		c-21.39-20.95-32.08-47.97-32.08-81.08c0-38.23,11.46-68.37,34.39-90.42c22.92-22.04,53.58-33.07,91.96-33.07
		c26.51,0,45.7,3.52,57.57,10.55v58.89c-14.5-10.84-30.69-16.26-48.56-16.26c-19.92,0-35.71,5.82-47.35,17.47
		c-11.64,11.65-17.47,27.72-17.47,48.23c0,19.92,5.57,35.56,16.7,46.91c11.13,11.35,26.44,17.03,45.92,17.03
		c17.28,0,34.2-5.42,50.76-16.26V617.54z"/>
	<path class="st0" d="M2978.72,623.04c-10.25,5.42-25.71,8.13-46.36,8.13c-48.93,0-73.39-25.41-73.39-76.25V451.87h-36.47v-51.2
		h36.47v-48.56l69.21-19.78v68.33h50.54v51.2h-50.54v90.97c0,23.44,9.3,35.16,27.91,35.16c7.32,0,14.87-2.12,22.63-6.37V623.04z"/>
	<path class="st0" d="M3261.77,614.47c-23,11.13-53.03,16.7-90.09,16.7c-48.34,0-86.35-14.21-114.04-42.63
		c-27.69-28.42-41.53-66.28-41.53-113.6c0-50.39,15.56-91.26,46.69-122.61c31.13-31.35,71.52-47.02,121.18-47.02
		c30.76,0,56.69,3.88,77.78,11.65v68.33c-21.09-12.6-45.12-18.9-72.07-18.9c-29.59,0-53.47,9.3-71.63,27.91
		c-18.17,18.6-27.25,43.8-27.25,75.59c0,30.47,8.57,54.75,25.71,72.84c17.14,18.09,40.21,27.14,69.21,27.14
		c27.69,0,53.03-6.74,76.03-20.21V614.47z"/>
	<path class="st0" d="M3537.13,625.67h-69.21V497.79c0-32.96-12.01-49.44-36.04-49.44c-12.3,0-22.27,4.61-29.88,13.84
		c-7.62,9.23-11.43,20.95-11.43,35.16v128.32h-69.43V292.57h69.43v141.5h0.88c16.99-25.93,40.06-38.89,69.21-38.89
		c50.98,0,76.46,30.76,76.46,92.29V625.67z"/>
	<path class="st0" d="M3805.46,532.95h-146.78c2.34,32.67,22.92,49,61.74,49c24.75,0,46.51-5.86,65.26-17.58v50.1
		c-20.8,11.13-47.83,16.7-81.08,16.7c-36.33,0-64.53-10.07-84.59-30.21c-20.07-20.14-30.1-48.23-30.1-84.27
		c0-37.35,10.84-66.94,32.52-88.77c21.68-21.83,48.34-32.74,79.98-32.74c32.81,0,58.19,9.74,76.13,29.22
		c17.94,19.48,26.92,45.92,26.92,79.32V532.95z M3741.08,490.32c0-32.22-13.04-48.34-39.11-48.34c-11.13,0-20.76,4.61-28.89,13.84
		c-8.13,9.23-13.07,20.73-14.83,34.5H3741.08z"/>
	<path class="st0" d="M4028.53,617.54c-15.68,9.08-38.31,13.62-67.9,13.62c-34.57,0-62.55-10.47-83.94-31.42
		c-21.39-20.95-32.08-47.97-32.08-81.08c0-38.23,11.46-68.37,34.39-90.42c22.92-22.04,53.58-33.07,91.96-33.07
		c26.51,0,45.7,3.52,57.57,10.55v58.89c-14.5-10.84-30.69-16.26-48.56-16.26c-19.92,0-35.71,5.82-47.35,17.47
		c-11.64,11.65-17.47,27.72-17.47,48.23c0,19.92,5.57,35.56,16.7,46.91c11.13,11.35,26.44,17.03,45.92,17.03
		c17.28,0,34.2-5.42,50.76-16.26V617.54z"/>
	<path class="st0" d="M4310.7,625.67h-83.28l-71.85-111.62h-0.88v111.62h-69.43V292.57h69.43V504.6h0.88l67.02-103.93h82.4
		l-80.64,105.69L4310.7,625.67z"/>
</g>
<g>
	<path class="st0" d="M625.89,805.21c-1.95-7.96-3.77-15.96-5.88-23.88c-9-33.74-22.08-65.66-42.19-94.44
		c-15.97-22.86-35.45-42.24-58.11-58.44c-0.73-0.52-1.57-0.88-3.41-1.89c15.56,63.27,30.88,125.6,46.21,187.93
		c-0.29,0.36-0.58,0.73-0.87,1.09c-2.67-1.07-5.53-1.83-7.99-3.27c-28.54-16.7-56.92-33.67-85.54-50.23
		c-54.71-31.67-110.16-62-166.55-90.6c-16.2-8.22-32.44-16.36-48.76-24.35c-5-2.45-10.38-4.13-15.43-6.49
		c-4.04-1.89-7.84-4.28-12.66-6.95c5.39-3.26,9.8-5.78,14.05-8.53c11.54-7.45,23.13-14.82,34.46-22.58
		c6.73-4.61,7.59-8.47,4.33-15.88c-16.39-37.28-32.85-74.53-49.29-111.79c-2.86-6.49-5.72-12.98-8.59-19.47
		c-1.95-4.41-0.72-6.29,4.07-5.61c11.26,1.6,22.5,3.37,33.73,5.16c19.14,3.05,38.27,6.17,57.4,9.24c0.33,0.05,0.68-0.07,1.62-0.19
		c-0.22-2.7-0.35-5.41-0.69-8.1c-2-16.12-4.06-32.24-6.07-48.36c-0.36-2.88-0.76-5.77-0.83-8.66c-0.19-8.03-2.45-11.45-10-14.02
		c-23.59-8.04-46.82-17-69.16-28.05c-20.02-9.9-40.32-19.35-58.84-32.02c-12.84-8.79-23.77-19.46-31.73-32.98
		c-4.66-7.92-3.32-17.1,3.44-23.22c6.3-5.69,14.03-8.31,22.11-9.64c12.12-2.01,24.3-3.99,36.54-4.92c12.4-0.94,24.96-1.5,37.33-0.61
		c32.62,2.33,65.37,2.97,97.64,9.9c41.07,8.82,82.55,15.74,123.7,24.24c61.21,12.64,122.28,25.94,181.61,46.04
		c36.17,12.25,71.3,27.15,106.26,42.45c16.09,7.04,32.19,14.09,48.08,21.58c12.19,5.75,23.18,13.39,32.4,23.38
		c0.4,0.43,0.81,0.84,1.18,1.29c3.91,4.69,3.51,6.88-1.85,9.76c-7.72,4.14-16.03,5.93-24.7,6.74c-16.1,1.5-32.18,3.32-48.37,2.59
		c-14.97-0.67-29.94-1.61-44.89-2.59c-11.71-0.77-23.4-1.83-35.1-2.67c-3.97-0.28-6.38,2.4-5.84,6.42
		c1.56,11.62,3.24,23.23,4.8,34.85c0.94,7.02,1.88,14.04,2.57,21.08c0.65,6.55,3.44,9.28,10.15,9.29c10.72,0.02,21.44,0,32.16,0.01
		c5.77,0.01,6.9,1.57,4.69,7.01c-7.79,19.18-15.96,38.22-23.45,57.52c-19.32,49.76-37.97,99.78-52.39,151.23
		c-5.26,18.79-9.96,37.73-14.68,56.66c-1.48,5.95-2.07,12.12-3.34,18.13c-0.51,2.41-1.74,4.66-2.64,6.98
		C626.34,805.3,626.12,805.26,625.89,805.21z M376.87,402.63c-0.51,3.66-0.96,6.83-1.39,10c-2.07,15.29-3.94,30.61-6.25,45.86
		c-1.48,9.77,0.81,13.87,10.62,15.93c15.9,3.34,31.94,6.05,47.78,9.66c17.66,4.02,35.15,8.74,52.72,13.17
		c5.22,1.32,8.51,4.58,9.71,9.87c4.94,21.85,9.92,43.7,14.8,65.57c1.59,7.12,5.2,12.39,12.37,14.71
		c17.68,5.71,35.19,12.23,53.9,13.69c12.76,0.99,22.97-2.81,26.15-16.84c1.17-5.16,1.57-10.6,1.53-15.9
		c-0.07-9.53-0.64-19.05-1.19-28.57c-0.52-9.05-1.35-18.07-1.89-27.12c-0.43-7.08-0.78-14.17-0.88-21.26
		c-0.06-4.27,1.61-6.17,5.84-6.98c2.12-0.41,4.37-0.13,6.56-0.12c1.97,0.01,3.96,0.28,5.91,0.09c4.97-0.48,9.91-1.21,14.87-1.74
		c6.39-0.69,7.38-2.12,6.55-8.57c-1.45-11.28-2.85-22.57-3.94-33.89c-0.39-4.01-2.14-6.42-5.71-7.93
		c-3.75-1.59-7.44-3.32-11.12-5.06c-45.64-21.61-91.28-43.23-136.93-64.84c-1.16-0.55-2.43-0.86-4.02-1.41
		c-0.38,3.57-0.73,6.55-1.03,9.54c-1.56,15.71-3.26,31.4-4.62,47.13c-0.72,8.32-2.73,10-10.89,7.86c-0.45-0.12-0.91-0.2-1.35-0.33
		c-20.97-6.11-41.94-12.24-62.92-18.34C387.17,405.42,382.27,404.12,376.87,402.63z"/>
	<path class="st0" d="M657.66,212.25c1.23,17.85,2.49,35.69,3.67,53.54c0.18,2.78,0.16,5.6,0.03,8.38c-0.2,4.22-1.49,5.06-5.62,3.92
		c-16.57-4.55-32.99-9.85-49.76-13.48c-24.48-5.31-49.14-9.95-73.88-13.88c-17.51-2.78-35.29-3.88-52.95-5.77
		c-24.8-2.65-49.69-2.81-74.59-2.79c-11.85,0.01-23.71,0-35.56,0c-6.84,0-13.71-0.32-20.53,0.09c-6.82,0.4-13.59,1.52-20.39,2.34
		c-0.69,0.08-1.36,0.31-2.05,0.37c-6.86,0.59-9.21-1.27-8.67-8.17c0.57-7.27,2.03-14.46,3.01-21.7c1.79-13.11,3.54-26.22,5.25-39.34
		c1.01-7.71,1.81-15.45,2.9-23.15c0.59-4.17,3.48-6.91,8.04-7.6c14.57-2.21,29.15-4.35,43.74-6.39c13.79-1.92,27.58-3.93,41.42-5.44
		c12.35-1.35,24.75-2.36,37.16-2.99c14.86-0.75,29.77-1.58,44.63-1.21c17.64,0.44,35.28,1.73,52.85,3.34
		c29.58,2.72,58.47,9.09,86.84,17.86c11.87,3.67,12.73,4.81,13.86,18.08c1.24,14.58,1.43,29.26,2.08,43.89
		C658.66,212.19,658.16,212.22,657.66,212.25z"/>
</g>
</svg>
